Coordinates
version=1
nRows=5
nColumns=63
inDegrees=yes

Units are S.I. units (second, meters, Newtons, ...)
If the header above contains a line with 'inDegrees', this indicates whether rotational values are in degrees (yes) or radians (no).

endheader
time	pelvis_tilt	pelvis_list	pelvis_rotation	pelvis_tx	pelvis_ty	pelvis_tz	hip_flexion_r	hip_adduction_r	hip_rotation_r	knee_angle_r	knee_angle_r_beta	ankle_angle_r	subtalar_angle_r	mtp_angle_r	hip_flexion_l	hip_adduction_l	hip_rotation_l	knee_angle_l	knee_angle_l_beta	ankle_angle_l	subtalar_angle_l	mtp_angle_l	L5_S1_Flex_Ext	L5_S1_Lat_Bending	L5_S1_axial_rotation	L4_L5_Flex_Ext	L4_L5_Lat_Bending	L4_L5_axial_rotation	L3_L4_Flex_Ext	L3_L4_Lat_Bending	L3_L4_axial_rotation	L2_L3_Flex_Ext	L2_L3_Lat_Bending	L2_L3_axial_rotation	L1_L2_Flex_Ext	L1_L2_Lat_Bending	L1_L2_axial_rotation	L1_T12_Flex_Ext	L1_T12_Lat_Bending	L1_T12_axial_rotation	Abs_r3	Abs_r2	Abs_r1	Abs_t1	Abs_t2	neck_flexion	neck_bending	neck_rotation	arm_flex_r	arm_add_r	arm_rot_r	elbow_flex_r	pro_sup_r	wrist_flex_r	wrist_dev_r	arm_flex_l	arm_add_l	arm_rot_l	elbow_flex_l	pro_sup_l	wrist_flex_l	wrist_dev_l
      0.00000000	     23.86479287	      0.33350106	    146.61719590	     -0.41821709	      0.90633791	      0.08963405	     23.30542494	     -2.72478548	    -69.87833513	     43.06532511	      0.75163172	      7.32699711	    -19.84792497	      0.00000000	     10.61318701	     -9.07497749	    -69.48521994	      1.27572183	      0.02226555	    -58.38621574	    -19.58513708	      0.00000000	      0.35660970	      0.92558170	      1.94324558	      0.66225988	      1.23102366	      2.06469843	      0.58587408	      2.25045934	      2.06469843	      0.40756923	      2.25045934	      1.70033988	      0.33114777	      1.88744620	      1.57888703	      0.20376678	      1.43372605	      1.45743418	      2.54722745	     10.47036529	     10.80774894	      0.00000000	      0.00000000	     27.91641371	    -34.91266354	    -44.03155450	      4.57769385	    -14.98678384	    -57.85702104	      3.57269561	    -42.58749118	     19.34030848	      4.97330294	      9.32352746	     -6.40896763	    -78.98688927	      0.94740028	    -62.23331875	     19.34030848	      4.97330294
      0.03333333	     23.07900652	     -0.48080246	    147.25552955	     -0.41926542	      0.90576243	      0.08951955	     24.69742919	     -5.93451059	    -69.88307724	     48.17988723	      0.84089767	     10.67569834	    -19.85279247	      0.00000000	     10.55662465	     -7.80159571	    -69.51339389	      1.03042769	      0.01798436	    -58.69918977	    -19.63511478	      0.00000000	      0.34755053	      0.76298513	      1.84535458	      0.64543609	      1.01477023	      1.96068924	      0.57099076	      1.85512205	      1.96068924	      0.39721550	      1.85512205	      1.61468526	      0.32273542	      1.55587928	      1.49935060	      0.19859037	      1.18186397	      1.38401594	      2.48251867	      8.63104042	     10.26330858	      0.00000000	      0.00000000	     27.92676656	    -34.20227489	    -44.05340094	      4.37505378	    -14.02686482	    -57.83740911	      3.25521400	    -42.82991502	     19.34570764	      4.97519593	      9.72510045	     -6.90081366	    -78.75937048	      1.07122187	    -62.29151299	     19.34570764	      4.97519593
      0.06666667	     22.09741222	     -1.62965877	    147.81715509	     -0.42021184	      0.90504629	      0.08932471	     26.20648128	     -9.35521215	    -69.88717055	     52.98907936	      0.92483390	     14.47056927	    -19.85702893	      0.00000000	     10.50877219	     -6.18980144	    -69.56049000	      0.80816676	      0.01410517	    -58.99418969	    -19.68570121	      0.00000000	      0.33469233	      0.54641493	      1.73994789	      0.62155712	      0.72673186	      1.84869463	      0.54986602	      1.32855326	      1.84869463	      0.38251986	      1.32855326	      1.52245440	      0.31079529	      1.11424933	      1.41370766	      0.19124320	      0.84639673	      1.30496092	      2.39067382	      6.18115497	      9.67706818	      0.00000000	      0.00000000	     27.93752088	    -33.16882057	    -44.07162364	      4.09095006	    -12.77905294	    -57.74440358	      3.13150559	    -43.08692372	     19.35048006	      4.97676721	      9.95803224	     -7.49628192	    -78.71615548	      1.24611257	    -62.21930757	     19.35048006	      4.97676721
      0.10000000	     20.91740303	     -3.10219845	    148.42085329	     -0.42079767	      0.90407988	      0.08915036	     27.78810659	    -13.00790975	    -69.88991870	     57.42280911	      1.00221708	     18.54674858	    -19.85976237	      0.00000000	     10.51767349	     -4.25279511	    -69.60875268	      0.65977324	      0.01151522	    -59.20796272	    -19.72993460	      0.00000000	      0.32274324	      0.27930038	      1.60424792	      0.59936647	      0.37146950	      1.70451342	      0.53023487	      0.67909094	      1.70451342	      0.36886325	      0.67909094	      1.40371693	      0.29969937	      0.56954933	      1.30345144	      0.18441549	      0.43263629	      1.20318594	      2.30532268	      3.15950174	      8.92234566	      0.00000000	      0.00000000	     27.94785194	    -31.74376751	    -44.08725625	      3.74615415	    -11.27658819	    -57.51541534	      3.20521557	    -43.36806698	     19.35552475	      4.97833211	      9.94383154	     -8.27721141	    -78.82752865	      1.42036557	    -62.07048383	     19.35552475	      4.97833211
      0.13333333	     19.57058644	     -4.86077034	    149.24023755	     -0.42053146	      0.90290624	      0.08932880	     29.46245221	    -16.88450166	    -69.89026799	     61.40190922	      1.07166548	     22.69328370	    -19.86061089	      0.00000000	     10.69242390	     -2.01310315	    -69.65350602	      0.56606147	      0.00987964	    -59.35699016	    -19.76529813	      0.00000000	      0.30991534	     -0.03041081	      1.41943779	      0.57554378	     -0.04044638	      1.50815266	      0.50915991	     -0.07394085	      1.50815266	      0.35420224	     -0.07394085	      1.24200807	      0.28778738	     -0.06201373	      1.15329321	      0.17708562	     -0.04710635	      1.06457835	      2.21369428	     -0.34401318	      7.89448718	      0.00000000	      0.00000000	     27.95766310	    -30.11939812	    -44.10035795	      3.41391993	     -9.60943326	    -57.09689768	      3.44032452	    -43.65336448	     19.36109202	      4.97994811	      9.76727401	     -9.27086676	    -79.13525799	      1.58382862	    -61.90763722	     19.36109202	      4.97994811
